<?xml version="1.0" standalone="no"?>
<!DOCTYPE svg PUBLIC "-//W3C//DTD SVG 20010904//EN"
 "http://www.w3.org/TR/2001/REC-SVG-20010904/DTD/svg10.dtd">
<svg version="1.0" xmlns="http://www.w3.org/2000/svg"
 width="134.000000pt" height="141.000000pt" viewBox="0 0 134.000000 141.000000"
 preserveAspectRatio="xMidYMid meet">

<g transform="translate(0.000000,141.000000) scale(0.100000,-0.100000)"
fill="#000000" stroke="none">
<path d="M484 1368 c-28 -33 -74 -102 -74 -114 0 -5 -16 -29 -35 -53 -19 -24
-35 -50 -35 -57 0 -7 -6 -19 -12 -26 -7 -7 -24 -33 -37 -58 -14 -25 -31 -51
-38 -58 -7 -7 -13 -20 -13 -28 0 -8 -5 -14 -12 -14 -6 0 -8 -3 -5 -7 4 -3 1
-13 -5 -21 -16 -19 -36 -53 -44 -74 -3 -10 -10 -18 -15 -18 -5 0 -9 -7 -9 -15
0 -8 -5 -15 -11 -15 -5 0 -8 -4 -4 -9 3 -5 -1 -15 -8 -23 -11 -11 -50 -77 -94
-160 -9 -18 -14 -60 -15 -124 0 -83 3 -100 21 -125 12 -16 28 -29 36 -29 8 0
15 -4 15 -8 0 -5 18 -16 40 -26 22 -10 46 -23 53 -29 7 -7 37 -25 67 -41 30
-16 57 -32 60 -35 7 -8 38 -27 88 -51 23 -12 42 -26 42 -31 0 -5 3 -8 8 -7 7
2 54 -21 62 -31 3 -4 16 -12 30 -19 14 -7 39 -21 55 -31 40 -26 79 -25 145 3
30 14 58 22 62 20 5 -3 8 0 8 5 0 6 7 11 15 11 20 0 75 49 75 67 0 7 3 13 8
13 8 0 19 20 47 83 10 20 21 37 25 37 4 0 11 11 14 25 4 14 11 25 16 25 6 0
10 5 10 12 0 13 49 89 65 100 5 4 6 8 2 8 -5 0 0 12 10 28 26 40 40 62 69 112
14 25 36 63 49 85 13 22 30 51 38 65 8 14 30 51 50 83 33 55 35 60 22 90 -7
17 -19 33 -26 36 -8 2 -31 17 -53 33 -21 15 -45 28 -52 28 -7 0 -25 10 -41 23
-15 13 -37 27 -47 31 -35 12 -176 100 -176 108 0 5 -4 6 -10 3 -5 -3 -10 -1
-10 4 0 6 -3 10 -7 9 -11 -3 -73 35 -73 44 0 4 -8 8 -18 8 -10 0 -27 8 -38 18
-10 9 -41 28 -67 42 -26 14 -57 33 -68 43 -10 10 -19 15 -19 12 0 -3 -17 6
-37 20 -46 31 -74 32 -99 3z m116 -89 c13 -6 27 -13 30 -17 3 -4 26 -19 53
-32 26 -14 47 -28 47 -31 0 -4 24 -18 53 -32 30 -14 60 -31 68 -39 8 -7 36
-24 62 -37 26 -13 47 -27 47 -31 0 -4 6 -7 13 -7 11 0 146 -80 157 -93 3 -4
26 -17 53 -29 26 -13 47 -27 47 -32 0 -6 5 -7 10 -4 6 3 13 0 16 -8 5 -14
-142 -273 -217 -385 -16 -23 -29 -47 -29 -52 0 -6 -4 -10 -10 -10 -5 0 -9 -3
-8 -7 3 -12 -28 -68 -46 -82 -9 -7 -13 -17 -11 -22 3 -4 -2 -12 -10 -17 -9 -5
-17 -15 -19 -23 -4 -24 -38 -84 -53 -92 -7 -5 -11 -12 -8 -17 3 -5 -3 -14 -14
-20 -19 -10 -50 -1 -71 20 -3 3 -21 14 -40 24 -19 11 -53 31 -75 45 -22 14
-43 24 -47 23 -5 -1 -8 3 -8 8 0 6 -4 10 -10 10 -15 0 -150 83 -150 93 0 4 -4
6 -9 2 -5 -3 -15 0 -23 7 -7 7 -33 24 -58 37 -25 14 -47 27 -50 30 -3 3 -25
17 -50 30 -25 14 -47 27 -50 30 -3 4 -26 17 -51 30 -33 18 -45 30 -44 44 1 12
7 23 13 25 7 2 10 8 6 13 -3 5 0 9 5 9 6 0 11 7 11 15 0 8 5 15 11 15 5 0 8 4
4 9 -3 5 1 16 9 23 7 8 24 34 36 59 13 24 25 46 29 49 3 3 14 21 25 40 10 19
34 58 52 87 19 28 34 56 34 62 0 6 3 11 8 11 4 0 23 29 41 65 19 36 38 65 41
65 4 0 7 6 7 13 0 15 82 149 97 159 6 4 20 1 31 -8 11 -8 31 -19 45 -25z
m-449 -818 c11 -9 23 -16 27 -16 14 -1 142 -80 142 -88 0 -4 5 -5 10 -2 6 3
10 1 10 -4 0 -6 6 -11 13 -11 7 0 36 -16 64 -35 29 -19 57 -35 63 -35 5 0 10
-4 10 -10 0 -5 11 -12 25 -16 13 -3 46 -21 72 -40 26 -19 53 -34 59 -34 5 0
20 -9 32 -20 12 -12 22 -18 22 -14 0 3 6 1 14 -6 19 -15 10 -40 -14 -40 -10 0
-20 -5 -22 -12 -3 -8 -11 -7 -30 3 -14 8 -54 29 -89 47 -35 18 -70 40 -76 49
-7 9 -13 13 -13 9 0 -4 -13 1 -30 11 -16 9 -30 21 -30 26 0 4 -4 5 -10 2 -5
-3 -10 -2 -10 4 0 5 -10 13 -22 17 -13 3 -52 26 -88 49 -36 23 -76 48 -90 55
-82 42 -109 65 -110 96 0 17 3 34 7 37 9 10 41 -1 64 -22z"/>
<path d="M536 1198 c3 -4 1 -8 -4 -8 -5 0 -12 -8 -15 -17 -6 -18 -37 -73 -47
-83 -3 -3 -14 -22 -24 -42 -11 -21 -23 -38 -28 -38 -5 0 -7 -4 -3 -10 3 -5 -3
-18 -15 -30 -11 -11 -21 -23 -21 -27 -4 -20 -23 -53 -31 -53 -5 0 -6 -4 -3
-10 3 -5 3 -10 -2 -10 -4 0 -19 -23 -33 -51 -13 -27 -32 -59 -42 -69 -10 -11
-18 -23 -18 -28 0 -4 -14 -30 -30 -56 -30 -47 -30 -48 -12 -71 11 -14 22 -22
24 -19 3 2 11 -2 18 -11 7 -8 18 -15 24 -15 7 0 22 -9 34 -20 12 -12 22 -18
22 -15 0 5 102 -55 110 -65 3 -4 38 -24 78 -45 39 -21 72 -43 72 -47 0 -5 4
-7 8 -4 4 2 46 -20 92 -50 91 -58 102 -62 122 -39 29 32 38 45 38 53 0 5 7 15
15 22 8 7 12 16 9 21 -3 5 0 9 5 9 6 0 11 5 11 11 0 6 14 30 30 54 17 24 30
48 30 53 0 5 13 27 28 48 15 21 34 54 41 72 7 17 17 32 22 32 5 0 9 7 9 15 0
8 5 15 11 15 5 0 8 4 4 9 -3 5 2 16 10 24 8 9 15 18 15 21 0 3 14 27 30 53 32
50 38 87 18 97 -7 3 -26 15 -43 26 -16 11 -37 23 -45 27 -8 3 -17 9 -20 12 -6
8 -43 28 -102 58 -26 13 -53 29 -60 36 -7 7 -28 19 -45 26 -18 7 -33 17 -33
22 0 5 -5 9 -10 9 -6 0 -41 19 -78 41 -111 69 -130 78 -151 76 -11 0 -17 -5
-15 -9z m76 -55 c4 1 17 -6 28 -15 11 -10 25 -18 30 -18 6 0 10 -5 10 -11 0
-5 4 -8 9 -5 5 4 23 -5 39 -19 16 -13 41 -29 55 -34 14 -6 62 -33 107 -61 45
-27 84 -50 88 -50 3 0 14 -7 24 -16 9 -9 37 -26 60 -38 48 -24 54 -34 35 -61
-13 -17 -18 -16 -93 30 -43 26 -92 56 -109 65 -86 49 -111 65 -117 75 -4 5 -8
6 -8 1 0 -4 -15 2 -32 16 -18 13 -50 32 -70 43 -21 11 -38 23 -38 27 0 5 -3 7
-7 6 -12 -4 -83 46 -83 58 0 23 22 33 44 19 11 -8 24 -13 28 -12z m-62 -72 c0
-5 11 -12 24 -15 13 -3 46 -20 73 -38 27 -18 66 -42 86 -52 41 -21 45 -39 19
-74 -14 -18 -25 -22 -60 -19 -31 3 -55 -3 -92 -24 l-50 -27 -56 34 c-72 43
-85 60 -71 91 6 13 14 23 19 23 4 0 8 4 8 9 0 5 12 29 26 55 19 35 32 46 50
46 13 0 24 -4 24 -9z m303 -178 c18 -10 35 -22 39 -28 5 -7 8 -7 8 0 0 6 4 5
8 -1 8 -13 63 -47 100 -64 12 -5 32 -18 43 -29 17 -15 18 -21 7 -32 -8 -8 -26
-39 -42 -69 -16 -30 -33 -61 -38 -67 -12 -15 -48 -17 -48 -3 0 6 -7 10 -15 10
-8 0 -15 5 -15 10 0 6 -9 10 -20 10 -11 0 -20 5 -20 10 0 6 -7 10 -15 10 -19
0 -43 48 -29 58 12 9 14 42 3 42 -5 0 -9 8 -9 19 0 10 -9 30 -20 44 -21 26
-27 57 -11 57 5 0 11 9 14 20 6 25 20 25 60 3z m-415 -43 c12 -11 23 -20 25
-19 1 0 14 -5 29 -12 35 -15 43 -40 25 -76 -13 -25 -16 -80 -5 -122 1 -8 11
-23 21 -33 22 -23 22 -39 -3 -66 -11 -12 -20 -25 -20 -31 0 -14 -33 -23 -40
-10 -4 6 -9 10 -11 9 -8 -4 -79 34 -79 42 0 5 -4 6 -10 3 -5 -3 -10 -2 -10 2
0 5 -27 23 -60 41 -41 23 -60 39 -60 53 0 10 4 19 9 19 5 0 13 9 16 21 9 26
86 151 100 161 5 4 6 8 1 8 -16 0 16 30 33 30 10 0 27 -9 39 -20z m290 -29 c2
-6 8 -9 13 -6 13 8 52 -81 45 -102 -14 -40 -61 -83 -95 -88 -19 -2 -39 -1 -45
3 -6 4 -13 7 -16 8 -38 7 -76 69 -65 107 11 40 28 67 42 67 7 0 13 4 13 9 0
20 101 22 108 2z m-162 -197 c-3 -7 0 -16 6 -20 7 -4 8 -3 4 4 -9 15 -1 15 26
1 17 -9 18 -13 7 -21 -11 -7 -9 -9 7 -5 12 2 28 1 35 -4 10 -6 5 -9 -14 -9
-37 0 -87 35 -87 61 0 12 4 17 11 14 6 -4 8 -13 5 -21z m277 -14 c14 -11 30
-20 36 -20 6 0 11 -4 11 -10 0 -5 5 -10 11 -10 7 0 18 -8 25 -17 10 -15 9 -23
-4 -45 -9 -16 -20 -28 -24 -28 -4 0 -8 -6 -8 -14 0 -14 -80 -150 -99 -169 -9
-9 -57 17 -179 95 -15 10 -39 24 -54 33 -32 18 -35 36 -12 56 9 7 20 23 24 34
7 18 16 21 64 20 31 -1 56 2 56 7 0 5 4 7 9 3 10 -6 42 24 68 63 19 27 43 28
76 2z"/>
<path d="M680 779 c0 -7 -10 -9 -24 -7 -30 6 -39 -11 -20 -37 10 -13 11 -22 3
-32 -14 -16 13 -29 39 -17 9 4 24 8 32 9 15 0 15 7 3 68 -5 26 -33 39 -33 16z"/>
</g>
</svg>
